<?xml version="1.0" encoding="utf-8"?>
<!-- Generator: Adobe Illustrator 25.2.1, SVG Export Plug-In . SVG Version: 6.00 Build 0)  -->
<svg version="1.1" xmlns="http://www.w3.org/2000/svg" xmlns:xlink="http://www.w3.org/1999/xlink" x="0px" y="0px"
	 viewBox="0 0 102 102" style="enable-background:new 0 0 102 102;" xml:space="preserve">
<style type="text/css">
	.st0{fill:#FFFFFF;}
	.st1{fill:#5C0ADD;}
</style>
<g id="Layer_2">
	<rect class="st0" width="102" height="102"/>
</g>
<g id="Layer_1">
	<g>
		<path class="st1" d="M57.6,17.3c16.7,0,26.7,8.6,26.9,22.5H64.7c-1.4-3.5-4.8-5.5-10-5.5c-9.2,0-16.1,6.5-17.9,16.6
			c-2,11.4,2.7,17.5,13.6,17.5c6.4,0,11.7-3,15.4-8.7H47.4l2.4-13.3h34.4L81,64.3C75.3,74,63.2,84.7,45.9,84.7
			c-20.4,0-31.2-13.9-27.7-33.7C21.6,31.2,37.3,17.3,57.6,17.3z"/>
	</g>
</g>
</svg>
